<?xml version="1.0" standalone="no"?>
<!DOCTYPE svg PUBLIC "-//W3C//DTD SVG 20010904//EN"
 "http://www.w3.org/TR/2001/REC-SVG-20010904/DTD/svg10.dtd">
<svg version="1.0" xmlns="http://www.w3.org/2000/svg"
 width="1002.000000pt" height="1002.000000pt" viewBox="0 0 1002.000000 1002.000000"
 preserveAspectRatio="xMidYMid meet">
<metadata>
Created by potrace 1.14, written by Peter Selinger 2001-2017
</metadata>
<g transform="translate(0.000000,1002.000000) scale(0.100000,-0.100000)"
fill="#000000" stroke="none">
<path d="M3795 8815 c-61 -12 -150 -39 -200 -60 -298 -125 -399 -134 -580 -49
-44 20 -84 30 -150 35 -49 4 -126 12 -170 18 -106 14 -144 14 -244 1 -66 -8
-95 -18 -140 -45 -31 -19 -78 -46 -106 -61 -92 -49 -144 -107 -145 -162 0 -14
-25 -50 -63 -91 -108 -118 -148 -166 -179 -222 -40 -70 -114 -166 -142 -184
-13 -9 -38 -39 -56 -68 -18 -28 -46 -71 -62 -94 -16 -24 -31 -52 -33 -62 -2
-11 -8 -28 -14 -39 -18 -34 -49 -215 -56 -328 -9 -137 3 -187 41 -178 22 6 24
3 24 -31 0 -20 -4 -34 -8 -31 -15 9 4 -99 25 -144 12 -25 29 -69 38 -99 10
-29 24 -65 31 -80 8 -14 14 -33 14 -41 0 -8 11 -38 24 -66 18 -39 24 -68 23
-125 0 -44 7 -90 16 -114 9 -22 18 -65 21 -95 7 -71 16 -109 27 -116 5 -3 9
-18 9 -33 0 -15 5 -32 12 -39 7 -7 8 -12 2 -12 -6 0 -9 -13 -6 -29 2 -16 -6
-63 -17 -105 -24 -88 -24 -89 -11 -81 6 3 10 0 10 -7 0 -9 3 -9 10 2 6 9 10
10 10 3 0 -6 -7 -19 -16 -27 -8 -9 -13 -20 -9 -25 3 -5 1 -12 -5 -16 -5 -3
-10 -15 -10 -25 0 -10 -5 -22 -12 -26 -8 -5 -9 -2 -5 9 3 9 3 19 -2 21 -4 3
-13 -20 -20 -52 -6 -31 -16 -75 -22 -97 -6 -22 -14 -65 -19 -95 -4 -30 -13
-66 -18 -80 l-11 -25 -1 25 c-1 34 -11 15 -44 -83 -36 -106 -38 -229 -7 -347
39 -147 82 -269 105 -298 26 -32 81 -153 91 -199 4 -18 12 -33 18 -33 8 0 9
-3 1 -8 -12 -8 -14 -112 -2 -112 4 0 5 -21 3 -47 -4 -37 -3 -43 5 -28 8 15 9
6 6 -39 -2 -32 -10 -62 -16 -66 -13 -8 -10 -41 5 -52 6 -4 20 -8 33 -8 14 0
21 -4 17 -11 -4 -6 -14 -8 -22 -5 -8 3 -11 1 -8 -4 7 -11 6 -12 -52 -15 -30
-2 -40 0 -37 9 10 26 -21 37 -58 21 -35 -14 -114 -93 -144 -144 -22 -36 -93
-80 -193 -117 -72 -27 -92 -41 -141 -92 -78 -82 -159 -119 -385 -175 -217 -55
-268 -81 -387 -206 -122 -127 -212 -193 -308 -227 l-80 -27 0 -885 c0 -789 2
-884 15 -878 9 3 44 0 78 -7 88 -19 286 -6 331 21 5 3 23 6 40 7 71 5 120 15
127 26 4 8 8 8 10 1 2 -6 22 -12 44 -13 22 -2 60 -11 85 -22 25 -10 55 -16 67
-14 13 2 24 -2 27 -10 7 -18 41 -30 156 -59 52 -12 96 -28 98 -33 2 -6 13 -11
23 -11 25 0 59 -17 59 -30 0 -5 -7 -7 -15 -4 -8 4 -15 3 -15 0 0 -13 52 -27
65 -16 6 5 15 7 19 3 4 -4 4 0 0 10 -7 20 5 22 41 5 26 -12 34 -43 13 -50 -7
-3 -5 -7 6 -11 10 -4 15 -3 11 3 -3 6 -1 10 4 10 12 0 15 33 4 44 -13 13 -11
35 3 29 8 -3 13 -12 12 -20 -2 -11 13 -19 50 -29 62 -16 112 -41 112 -55 0 -6
5 -7 12 -3 7 4 8 3 4 -5 -4 -6 -10 -9 -14 -7 -4 2 -15 -2 -25 -9 -16 -11 -14
-14 19 -30 49 -23 146 -24 169 -2 13 13 13 17 2 17 -8 0 -23 8 -35 18 -17 15
-19 21 -9 32 7 8 7 10 1 7 -6 -4 -19 2 -29 13 -16 18 -16 19 14 18 17 -1 31
-6 31 -12 0 -6 4 -5 9 3 7 11 12 11 32 0 26 -15 81 -20 73 -7 -9 14 17 9 32
-7 8 -8 21 -12 29 -9 8 4 15 1 15 -5 0 -6 -9 -11 -19 -11 -19 0 -35 -23 -24
-34 4 -3 19 -6 34 -6 15 0 31 -4 34 -10 3 -6 -1 -7 -9 -4 -9 3 -16 1 -16 -5 0
-6 9 -11 20 -11 11 0 20 -4 20 -9 0 -6 12 -6 32 0 44 12 48 12 42 -6 -4 -8 -2
-15 2 -16 5 0 19 -2 32 -3 12 -2 22 1 22 6 0 4 -11 8 -24 8 -33 0 -28 34 5 37
22 2 22 2 4 -6 -11 -5 -15 -10 -8 -10 6 -1 20 -4 30 -8 10 -3 15 -3 11 2 -4 4
-3 16 3 26 9 17 12 18 33 4 12 -8 26 -12 30 -8 3 4 15 7 26 8 15 1 17 -1 9
-11 -6 -7 -16 -11 -24 -8 -7 3 -16 1 -20 -5 -6 -11 11 -16 30 -10 6 2 54 3
108 4 87 0 100 2 114 20 10 13 17 16 20 8 2 -7 10 -10 18 -7 7 3 48 -7 91 -21
44 -15 88 -27 99 -28 11 0 23 -5 26 -9 15 -23 309 -10 309 13 0 5 8 5 17 2 12
-5 15 -2 10 10 -4 11 -1 17 7 17 7 0 21 9 31 20 10 11 26 20 34 19 9 -1 29 3
44 9 16 7 33 12 38 12 5 0 9 5 9 11 0 5 5 7 11 3 6 -3 14 -1 18 5 4 6 29 13
54 14 26 1 47 6 47 11 0 4 16 5 34 2 29 -6 37 -3 46 14 14 27 29 26 24 -3 -2
-12 -2 -16 2 -9 3 6 12 12 20 12 9 0 13 4 9 9 -3 5 -1 12 3 15 5 3 9 -4 8 -15
0 -11 -8 -24 -16 -29 -8 -5 -13 -10 -10 -11 3 0 13 -2 22 -4 10 -2 20 1 24 6
3 5 10 7 15 3 5 -3 15 -1 22 4 7 6 38 13 69 17 32 4 63 13 69 21 6 8 15 12 19
9 9 -5 50 32 50 45 0 6 -5 10 -11 10 -5 0 -7 5 -4 10 3 6 13 10 21 10 9 0 12
-5 8 -11 -3 -6 0 -15 7 -20 10 -6 11 -9 2 -9 -7 0 -13 -4 -13 -9 0 -11 93 -1
101 12 4 5 9 4 12 -4 4 -11 6 -11 6 1 1 8 17 28 36 43 19 15 35 36 35 47 0 21
-28 34 -54 24 -35 -13 -4 24 32 39 42 18 120 29 126 18 9 -13 -36 -43 -56 -38
-11 3 -17 3 -14 0 3 -4 0 -13 -7 -21 -10 -13 -9 -15 5 -9 27 10 33 -12 9 -34
-12 -11 -21 -25 -21 -30 0 -6 -7 -9 -15 -5 -9 3 -15 0 -15 -9 0 -26 19 -26 33
1 8 16 17 22 21 16 3 -6 2 -13 -4 -17 -13 -8 -13 -25 1 -25 5 0 7 5 4 10 -3 6
-1 10 4 10 6 0 11 -4 11 -8 0 -4 29 -4 65 2 36 5 65 13 65 17 0 4 9 5 20 2 13
-3 22 1 26 12 5 12 9 14 15 4 9 -15 49 -23 49 -10 0 10 12 9 48 -3 15 -5 27
-2 38 8 8 9 22 16 30 16 11 0 13 6 9 20 -5 16 -2 20 17 20 18 0 20 -2 8 -10
-8 -5 -12 -12 -9 -15 9 -9 40 6 33 16 -3 5 2 9 10 9 9 0 16 -4 16 -10 0 -5 7
-10 15 -10 8 0 14 6 13 12 -2 7 4 13 12 13 9 0 14 -7 12 -17 -2 -14 5 -16 42
-15 24 1 42 -1 39 -6 -2 -4 -1 -12 3 -18 4 -7 12 2 21 21 9 23 10 36 3 40 -7
5 -6 11 3 19 12 9 16 8 19 -7 3 -11 1 -27 -4 -36 -6 -11 -6 -22 2 -31 8 -10 8
-14 -2 -18 -8 -3 -2 -10 15 -18 25 -11 30 -11 38 4 12 21 54 24 46 3 -8 -19
48 -70 68 -63 16 7 100 -10 200 -41 34 -11 97 -20 140 -21 44 -1 109 -6 145
-10 36 -5 95 -7 132 -6 76 3 219 34 230 50 5 6 8 5 8 -4 0 -8 7 -11 20 -8 11
3 20 1 20 -4 0 -4 7 -6 15 -3 8 4 21 2 28 -3 20 -15 69 -16 78 -1 7 10 9 9 9
-4 0 -9 8 -17 18 -16 9 0 37 -3 62 -6 25 -4 56 -8 70 -10 108 -15 226 -40 257
-53 48 -21 121 -25 131 -7 10 18 160 94 185 94 23 0 117 43 162 74 16 11 36
21 45 23 21 3 149 34 184 44 16 5 77 9 135 9 113 0 199 19 267 59 19 12 42 21
50 21 8 0 14 5 14 10 0 6 6 10 14 10 7 0 34 11 59 25 26 13 54 22 62 18 10 -3
15 0 13 8 -2 8 4 14 12 14 8 0 21 4 28 9 7 4 16 5 19 2 4 -3 25 5 47 18 138
80 175 95 261 102 33 3 74 9 90 14 17 4 66 13 110 19 229 32 304 44 347 56 43
12 49 12 58 -3 8 -15 9 -15 10 -1 0 13 23 22 93 38 359 84 420 121 481 292 62
174 109 236 221 292 46 22 186 68 225 73 19 3 44 7 55 11 11 3 29 8 40 9 82
14 120 27 140 48 12 13 39 29 61 36 54 18 131 79 178 139 44 58 85 152 86 194
0 61 -52 120 -126 142 -90 26 -258 154 -345 262 -50 62 -85 83 -140 83 -73 0
-194 40 -224 74 -17 19 -188 113 -230 126 -61 19 -169 62 -179 72 -6 4 -18 8
-28 8 -26 0 -43 37 -26 58 11 14 11 15 -5 9 -10 -4 -21 -7 -23 -7 -2 0 -4 -7
-4 -15 0 -8 -4 -15 -9 -15 -16 0 -100 60 -116 83 -47 67 -71 109 -96 169 -45
110 -135 213 -219 250 -19 9 -60 27 -92 41 -31 14 -73 25 -95 25 -32 0 -34 -2
-15 -9 18 -7 22 -16 22 -49 0 -22 -2 -40 -4 -40 -3 0 -18 14 -35 31 -17 17
-31 28 -31 24 0 -4 -14 5 -31 19 -17 14 -36 26 -42 26 -7 0 1 -10 16 -21 26
-20 27 -22 10 -35 -17 -13 -17 -13 0 -15 9 -1 22 -3 27 -4 6 -1 18 -3 29 -4
33 -2 55 -131 22 -131 -7 0 -19 7 -25 16 -10 13 -12 12 -12 -11 0 -22 4 -26
23 -22 28 5 37 -6 27 -35 l-7 -22 -18 23 c-11 13 -19 18 -19 13 0 -6 5 -14 10
-17 6 -3 10 -11 10 -17 0 -6 -9 -3 -19 6 -11 10 -17 24 -14 32 3 8 0 14 -6 14
-6 0 -11 6 -11 14 0 8 -7 17 -16 20 -24 9 -26 8 -18 -16 12 -40 -4 -14 -20 31
-16 47 -14 62 7 57 7 -1 9 -1 5 1 -4 2 -5 10 -2 17 4 9 -4 13 -25 12 -20 -1
-26 -4 -20 -12 5 -6 6 -25 3 -43 l-7 -31 -20 22 c-12 14 -18 17 -14 7 3 -9 1
-22 -4 -30 -8 -12 -10 -12 -8 1 1 8 -1 23 -6 34 -9 21 9 37 34 29 13 -4 13 -3
2 5 -7 5 -10 15 -7 21 4 6 1 11 -6 11 -9 0 -9 3 2 10 13 8 13 11 -3 27 -16 16
-17 16 -17 0 0 -20 -21 -22 -38 -5 -9 9 -12 9 -13 -2 0 -8 -7 8 -15 35 -7 28
-10 51 -5 53 30 10 45 33 44 66 -1 26 5 40 20 51 12 8 16 15 9 15 -7 0 -10 5
-7 10 4 6 11 7 17 4 7 -4 8 -2 4 5 -4 6 -3 17 2 24 6 7 16 31 23 55 6 23 16
42 22 42 5 0 7 6 4 13 -7 17 14 42 37 44 10 1 28 -7 39 -18 19 -17 22 -18 30
-4 5 9 6 23 3 31 -3 8 -1 14 4 14 6 0 10 -4 10 -8 0 -5 7 -17 16 -28 15 -19
15 -19 5 2 -11 22 -4 38 19 47 9 3 4 6 -12 6 -16 1 -37 12 -51 27 -16 17 -27
22 -31 15 -14 -21 -24 -11 -17 16 4 16 12 28 18 28 6 0 15 3 19 8 4 4 -1 7
-12 7 -16 0 -19 8 -21 50 -1 30 3 54 11 63 8 7 14 33 14 57 1 25 6 46 11 48 6
2 11 11 11 19 0 11 6 14 21 10 12 -3 30 0 41 6 15 10 21 9 28 -3 23 -37 29
-44 36 -37 4 3 1 13 -6 22 -10 12 -10 15 4 15 9 0 16 -6 16 -12 0 -9 3 -9 9 1
6 9 5 21 -2 33 -9 14 -9 23 1 38 6 11 12 26 12 34 0 8 5 16 10 18 6 2 13 37
15 78 3 41 10 77 15 80 7 4 7 30 0 76 -6 38 -12 80 -15 94 -2 14 0 41 5 61 10
48 -5 74 -20 35 -6 -16 -12 -38 -15 -50 -2 -11 -4 -21 -5 -21 -1 0 -3 -15 -5
-32 -2 -23 1 -33 10 -33 26 0 9 -138 -20 -170 -12 -13 -13 -19 -4 -22 7 -2 -3
-11 -22 -20 -32 -16 -34 -16 -48 4 -14 21 -15 21 -23 2 -6 -13 -6 -10 -2 11 3
17 13 38 21 47 14 16 14 18 -8 27 -13 5 -18 10 -10 10 8 1 23 8 32 17 17 16
19 15 28 -8 5 -14 17 -28 25 -31 21 -8 20 0 -1 21 -16 16 -16 17 0 20 11 2 17
13 17 33 0 22 -4 28 -12 23 -10 -6 -10 -4 0 8 15 18 6 48 -14 48 -8 0 -14 5
-14 11 0 5 4 8 9 4 5 -3 12 -1 15 4 9 14 -4 41 -21 41 -8 0 -11 -4 -8 -10 3
-5 1 -10 -4 -10 -17 0 -13 16 13 47 12 15 28 38 35 50 6 13 23 26 36 29 24 6
35 24 15 24 -5 0 -7 7 -4 15 4 8 1 15 -6 15 -10 0 -10 3 -1 14 9 11 9 19 -1
35 -7 12 -17 20 -23 17 -6 -2 -10 28 -10 78 0 44 -4 102 -8 128 -7 43 -7 47
12 45 12 -1 24 -9 27 -19 3 -10 12 -18 20 -18 9 0 14 -8 13 -17 -3 -31 1 -57
7 -50 11 11 44 -13 43 -31 0 -10 -3 -12 -6 -4 -2 6 -9 12 -14 12 -6 0 -7 -5
-3 -12 4 -7 9 -25 11 -41 2 -17 12 -44 23 -62 12 -19 20 -50 20 -76 0 -28 3
-39 9 -31 4 8 17 12 27 10 13 -2 18 2 15 12 -2 8 -3 47 -1 85 2 39 3 129 2
200 -2 224 -2 239 3 275 6 47 -3 78 -24 85 -14 4 -65 92 -66 114 -1 3 -8 29
-17 56 -17 52 -29 122 -33 190 -4 70 -17 135 -27 135 -12 0 0 100 14 117 5 6
15 63 23 125 7 62 21 137 30 166 9 29 13 57 10 62 -3 6 0 10 7 10 9 1 9 4 -3
13 -17 13 -32 57 -19 57 5 0 10 -5 12 -12 2 -6 10 -8 16 -4 16 10 15 53 -1 63
-35 23 -42 125 -11 183 20 37 51 138 59 190 4 25 2 92 -5 150 -13 129 -47 206
-124 283 -85 85 -292 203 -451 258 -38 13 -72 26 -75 29 -3 4 -36 15 -75 26
-106 29 -264 25 -430 -11 -109 -24 -157 -29 -295 -31 -115 -2 -182 2 -220 11
-30 8 -77 20 -105 26 -27 7 -117 39 -200 71 -234 93 -378 146 -405 152 -14 3
-47 10 -75 16 -193 41 -424 40 -625 -4 -141 -31 -281 -46 -466 -47 -105 -1
-196 1 -201 4 -6 4 -46 14 -90 23 -87 18 -130 28 -188 44 -22 6 -101 12 -175
14 -110 3 -157 -1 -245 -19z m-2285 -1535 c0 -5 -5 -10 -11 -10 -5 0 -7 5 -4
10 3 6 8 10 11 10 2 0 4 -4 4 -10z m6667 -862 c-3 -8 -6 -5 -6 6 -1 11 2 17 5
13 3 -3 4 -12 1 -19z m-87 -347 c0 -5 -7 -12 -16 -15 -14 -5 -15 -4 -4 9 14
17 20 19 20 6z m110 -195 c0 -3 -4 -8 -10 -11 -5 -3 -10 -1 -10 4 0 6 5 11 10
11 6 0 10 -2 10 -4z m-150 -87 c0 -5 -11 -14 -25 -19 -14 -5 -25 -17 -25 -27
0 -15 -2 -16 -10 -3 -14 21 -13 27 10 50 19 19 50 18 50 -1z m-6456 -283 c-3
-15 -8 -25 -11 -23 -2 3 -1 17 3 31 3 15 8 25 11 23 2 -3 1 -17 -3 -31z m6429
-25 c5 -22 -1 -33 -14 -25 -12 7 -12 44 0 44 5 0 11 -9 14 -19z m-143 -745 c0
-11 -19 -15 -25 -6 -3 5 1 10 9 10 9 0 16 -2 16 -4z m-187 -508 c-2 -5 -9 -8
-15 -8 -6 0 -8 3 -5 6 3 4 1 16 -5 28 l-11 21 20 -20 c11 -11 19 -23 16 -27z
m43 11 c3 -6 1 -15 -6 -19 -9 -6 -9 -12 0 -29 11 -21 10 -22 -9 -11 -23 12
-27 25 -11 35 5 3 7 12 3 20 -6 17 13 20 23 4z m-5956 -55 c0 -8 -5 -12 -10
-9 -6 4 -8 11 -5 16 9 14 15 11 15 -7z m5933 -18 c28 -7 35 -20 15 -32 -7 -4
-8 -3 -4 4 4 7 2 12 -3 12 -6 0 -14 0 -18 0 -5 0 -8 -5 -8 -11 0 -7 -15 -13
-32 -15 -39 -4 -40 -1 -13 29 12 12 16 23 10 25 -5 2 -7 9 -4 14 5 7 11 6 18
-4 6 -8 23 -18 39 -22z m-93 -37 c0 -6 -4 -7 -10 -4 -5 3 -10 11 -10 16 0 6 5
7 10 4 6 -3 10 -11 10 -16z m70 -44 c15 9 40 -13 40 -37 0 -21 -26 -22 -48 -1
-7 7 -20 17 -29 22 -11 6 -14 15 -9 27 7 18 8 18 21 0 8 -10 19 -15 25 -11z
m-60 -1 c0 -8 -4 -12 -10 -9 -5 3 -10 10 -10 16 0 5 5 9 10 9 6 0 10 -7 10
-16z m-7 -50 c-3 -7 -10 -11 -15 -8 -6 4 -5 10 3 15 10 6 11 9 2 9 -7 0 -13 5
-13 11 0 8 4 8 14 -1 8 -6 12 -18 9 -26z m67 -19 c7 -9 8 -15 2 -15 -5 0 -12
7 -16 15 -3 8 -4 15 -2 15 2 0 9 -7 16 -15z m-72 -19 c-7 -8 -15 -12 -17 -11
-5 6 10 25 20 25 5 0 4 -6 -3 -14z m-4014 -2322 c22 -33 26 -71 6 -59 -5 3
-16 -5 -24 -17 -9 -12 -16 -18 -16 -14 0 5 7 18 17 28 9 10 11 18 6 18 -6 0
-16 -7 -23 -15 -7 -8 -17 -15 -24 -15 -6 0 2 11 17 26 15 14 32 22 37 19 17
-11 11 10 -10 33 -11 12 -20 24 -20 27 0 13 11 3 34 -31z m-54 -99 c11 -3 31
1 45 11 14 9 25 12 25 6 0 -6 -5 -12 -12 -14 -7 -3 -9 -11 -3 -24 4 -10 7 -25
6 -32 -2 -10 4 -12 18 -7 15 5 21 2 21 -9 0 -9 5 -16 10 -16 6 0 10 -4 10 -10
0 -17 -18 -11 -25 9 -3 12 -13 17 -28 16 -19 -2 -23 2 -23 24 1 23 -2 26 -34
25 -34 -1 -35 0 -36 40 -1 22 1 29 3 14 2 -15 13 -30 23 -33z m-20 -46 c0 -5
5 -7 12 -3 7 5 8 3 4 -5 -5 -7 -14 -10 -20 -8 -7 3 -13 -1 -13 -9 0 -7 5 -10
10 -7 6 3 7 1 3 -5 -4 -7 -17 -12 -29 -12 -18 0 -19 2 -7 10 12 8 11 11 -9 16
l-23 7 28 13 c37 16 44 16 44 3z m179 -37 c0 -20 -3 -30 -6 -22 -4 8 -13 20
-22 26 -13 10 -13 14 -2 28 19 23 31 10 30 -32z m737 25 c4 -4 -2 -7 -14 -7
-12 0 -22 4 -22 9 0 10 26 9 36 -2z m-836 -37 c0 -5 8 -10 18 -10 28 0 34 -11
14 -26 -31 -24 -51 -17 -50 16 1 17 5 30 10 30 4 0 8 -4 8 -10z m585 0 c-3 -5
-11 -10 -16 -10 -6 0 -7 5 -4 10 3 6 11 10 16 10 6 0 7 -4 4 -10z m195 -11 c0
-5 -4 -9 -10 -9 -5 0 -10 7 -10 16 0 8 5 12 10 9 6 -3 10 -10 10 -16z m-710
-75 c0 -2 -7 -4 -15 -4 -8 0 -15 4 -15 10 0 5 7 7 15 4 8 -4 15 -8 15 -10z
m-1490 -176 c0 7 5 10 11 6 8 -4 7 -9 -2 -14 -16 -10 -41 -1 -33 12 4 6 10 5
15 -3 7 -11 9 -11 9 -1z m-320 -8 c0 -5 -5 -10 -11 -10 -5 0 -7 5 -4 10 3 6 8
10 11 10 2 0 4 -4 4 -10z"/>
<path d="M1495 7200 c-3 -5 -1 -10 4 -10 6 0 11 5 11 10 0 6 -2 10 -4 10 -3 0
-8 -4 -11 -10z"/>
<path d="M8140 5325 c0 -8 7 -15 16 -15 14 0 14 3 4 15 -7 8 -14 15 -16 15 -2
0 -4 -7 -4 -15z"/>
<path d="M8107 5140 c-15 -32 -14 -36 1 -48 13 -10 19 -9 31 3 13 13 13 18 -1
47 l-16 33 -15 -35z"/>
<path d="M7890 4800 c0 -5 5 -10 11 -10 5 0 7 5 4 10 -3 6 -8 10 -11 10 -2 0
-4 -4 -4 -10z"/>
<path d="M7936 4781 c-3 -5 1 -11 9 -14 9 -4 12 -1 8 9 -6 16 -10 17 -17 5z"/>
<path d="M7978 4638 c-3 -7 -2 -22 3 -33 4 -11 8 -15 9 -10 0 6 7 1 15 -9 15
-19 15 -19 15 3 0 27 -35 68 -42 49z"/>
<path d="M7895 4620 c-3 -5 1 -10 10 -10 9 0 13 5 10 10 -3 6 -8 10 -10 10 -2
0 -7 -4 -10 -10z"/>
<path d="M7874 4585 c3 -8 0 -14 -5 -12 -6 1 -13 -8 -15 -21 -4 -22 -3 -23 13
-6 20 19 26 54 11 54 -6 0 -8 -7 -4 -15z"/>
<path d="M7896 4534 c-5 -12 -2 -15 10 -10 8 3 18 6 20 6 3 0 2 5 -1 10 -9 15
-22 12 -29 -6z"/>
<path d="M7936 4497 c3 -10 9 -15 12 -12 3 3 0 11 -7 18 -10 9 -11 8 -5 -6z"/>
<path d="M7884 4463 c-9 -16 -24 -33 -32 -39 -11 -8 -12 -13 -4 -18 7 -4 12
-12 12 -17 0 -6 -4 -8 -8 -5 -5 3 -6 -9 -4 -27 4 -26 7 -29 15 -15 10 15 13
15 34 1 13 -9 23 -12 22 -7 -3 19 2 34 12 34 5 0 8 -4 5 -8 -2 -4 4 -14 16
-21 11 -7 17 -8 14 -2 -4 5 -1 13 6 17 8 5 4 10 -10 15 -28 10 -29 38 -2 36
23 -1 33 -22 25 -48 -4 -11 -2 -19 4 -19 6 0 11 5 11 11 0 5 5 7 10 4 6 -4 10
5 10 20 0 14 4 24 8 21 5 -3 6 8 4 25 -3 17 -10 29 -19 29 -12 0 -13 -3 -4
-13 8 -11 5 -13 -19 -9 -29 4 -29 4 -10 25 24 25 19 33 -8 18 -28 -15 -42 -14
-42 4 0 24 -26 17 -46 -12z"/>
<path d="M7910 4299 c7 -11 14 -18 17 -15 8 8 -5 36 -17 36 -7 0 -7 -6 0 -21z"/>
<path d="M7945 4290 c3 -5 11 -10 16 -10 6 0 7 5 4 10 -3 6 -11 10 -16 10 -6
0 -7 -4 -4 -10z"/>
<path d="M1678 4273 c7 -3 16 -2 19 1 4 3 -2 6 -13 5 -11 0 -14 -3 -6 -6z"/>
<path d="M7903 4185 c-18 -20 -16 -23 13 -17 20 4 25 2 19 -8 -5 -8 -4 -11 3
-7 13 9 4 47 -12 47 -6 -1 -17 -7 -23 -15z"/>
<path d="M7856 4161 c-3 -5 1 -11 9 -15 9 -3 15 0 15 9 0 16 -16 20 -24 6z"/>
<path d="M3730 1391 c0 -6 4 -13 10 -16 6 -3 7 1 4 9 -7 18 -14 21 -14 7z"/>
<path d="M1235 1330 c-3 -5 -1 -10 4 -10 6 0 11 5 11 10 0 6 -2 10 -4 10 -3 0
-8 -4 -11 -10z"/>
<path d="M1210 1309 c0 -5 9 -9 20 -9 11 0 20 2 20 4 0 2 -9 6 -20 9 -11 3
-20 1 -20 -4z"/>
<path d="M3175 1280 c-4 -6 5 -10 19 -10 14 0 26 5 26 10 0 6 -9 10 -19 10
-11 0 -23 -4 -26 -10z"/>
<path d="M1663 1265 c-14 -16 0 -31 18 -19 7 4 25 7 40 6 16 0 29 4 29 9 0 5
-11 9 -24 9 -13 0 -30 2 -38 5 -7 2 -19 -2 -25 -10z"/>
<path d="M3140 1275 c0 -16 22 -35 40 -34 13 0 13 1 0 6 -8 4 -20 13 -27 22
-7 9 -13 11 -13 6z"/>
<path d="M3250 1270 c-13 -8 -12 -10 3 -10 9 0 17 5 17 10 0 12 -1 12 -20 0z"/>
<path d="M3120 1250 c0 -5 5 -10 11 -10 5 0 7 5 4 10 -3 6 -8 10 -11 10 -2 0
-4 -4 -4 -10z"/>
<path d="M3068 1243 c-28 -7 -21 -21 7 -15 14 2 25 8 25 13 0 9 -4 10 -32 2z"/>
<path d="M3020 1225 c-10 -12 -10 -15 4 -15 9 0 16 7 16 15 0 8 -2 15 -4 15
-2 0 -9 -7 -16 -15z"/>
</g>
</svg>
